<svg xmlns="http://www.w3.org/2000/svg" viewBox="0 0 1280 640" width="100%">
<rect width="1280" height="640" fill="#fff"/>
<line x1="66" y1="572.0" x2="1088" y2="572.0" stroke="#eef1f4"/>
<text x="58" y="576.0" font-size="11" fill="#6e7781" text-anchor="end">334</text>
<line x1="66" y1="498.0" x2="1088" y2="498.0" stroke="#eef1f4"/>
<text x="58" y="502.0" font-size="11" fill="#6e7781" text-anchor="end">352</text>
<line x1="66" y1="424.0" x2="1088" y2="424.0" stroke="#eef1f4"/>
<text x="58" y="428.0" font-size="11" fill="#6e7781" text-anchor="end">371</text>
<line x1="66" y1="350.0" x2="1088" y2="350.0" stroke="#eef1f4"/>
<text x="58" y="354.0" font-size="11" fill="#6e7781" text-anchor="end">389</text>
<line x1="66" y1="276.0" x2="1088" y2="276.0" stroke="#eef1f4"/>
<text x="58" y="280.0" font-size="11" fill="#6e7781" text-anchor="end">407</text>
<line x1="66" y1="202.0" x2="1088" y2="202.0" stroke="#eef1f4"/>
<text x="58" y="206.0" font-size="11" fill="#6e7781" text-anchor="end">425</text>
<line x1="66" y1="128.0" x2="1088" y2="128.0" stroke="#eef1f4"/>
<text x="58" y="132.0" font-size="11" fill="#6e7781" text-anchor="end">444</text>
<line x1="66" y1="54.0" x2="1088" y2="54.0" stroke="#eef1f4"/>
<text x="58" y="58.0" font-size="11" fill="#6e7781" text-anchor="end">462</text>
<line x1="66.0" y1="422.1" x2="66.0" y2="439.3" stroke="#57606a" stroke-width="1" opacity=".38"/>
<rect x="58.1" y="428.5" width="15.8" height="1.9" fill="#57606a" opacity=".22"/>
<line x1="92.2" y1="402.6" x2="92.2" y2="421.5" stroke="#57606a" stroke-width="1" opacity=".38"/>
<rect x="84.3" y="411.6" width="15.8" height="5.5" fill="#57606a" opacity=".22"/>
<line x1="118.4" y1="421.5" x2="118.4" y2="438.6" stroke="#57606a" stroke-width="1" opacity=".38"/>
<rect x="110.5" y="424.0" width="15.8" height="8.1" fill="#57606a" opacity=".22"/>
<line x1="144.6" y1="414.9" x2="144.6" y2="433.4" stroke="#57606a" stroke-width="1" opacity=".38"/>
<rect x="136.7" y="429.5" width="15.8" height="3.4" fill="#57606a" opacity=".22"/>
<line x1="170.8" y1="384.8" x2="170.8" y2="400.9" stroke="#57606a" stroke-width="1" opacity=".38"/>
<rect x="162.9" y="393.4" width="15.8" height="2.8" fill="#57606a" opacity=".22"/>
<line x1="197.0" y1="371.3" x2="197.0" y2="404.0" stroke="#57606a" stroke-width="1" opacity=".38"/>
<rect x="189.1" y="376.2" width="15.8" height="19.8" fill="#57606a" opacity=".22"/>
<line x1="223.2" y1="404.2" x2="223.2" y2="430.6" stroke="#57606a" stroke-width="1" opacity=".38"/>
<rect x="215.3" y="408.3" width="15.8" height="5.2" fill="#57606a" opacity=".22"/>
<line x1="249.4" y1="387.3" x2="249.4" y2="396.3" stroke="#57606a" stroke-width="1" opacity=".38"/>
<rect x="241.5" y="391.9" width="15.8" height="1.3" fill="#57606a" opacity=".22"/>
<line x1="275.6" y1="395.8" x2="275.6" y2="411.3" stroke="#57606a" stroke-width="1" opacity=".38"/>
<rect x="267.7" y="397.9" width="15.8" height="8.1" fill="#57606a" opacity=".22"/>
<line x1="301.8" y1="400.9" x2="301.8" y2="422.6" stroke="#57606a" stroke-width="1" opacity=".38"/>
<rect x="293.9" y="408.0" width="15.8" height="9.6" fill="#57606a" opacity=".22"/>
<line x1="328.1" y1="408.1" x2="328.1" y2="428.3" stroke="#57606a" stroke-width="1" opacity=".38"/>
<rect x="320.1" y="416.8" width="15.8" height="1.0" fill="#57606a" opacity=".22"/>
<line x1="354.3" y1="432.7" x2="354.3" y2="450.4" stroke="#57606a" stroke-width="1" opacity=".38"/>
<rect x="346.3" y="436.6" width="15.8" height="10.1" fill="#57606a" opacity=".22"/>
<line x1="380.5" y1="429.5" x2="380.5" y2="452.2" stroke="#57606a" stroke-width="1" opacity=".38"/>
<rect x="372.5" y="432.7" width="15.8" height="17.4" fill="#57606a" opacity=".22"/>
<line x1="406.7" y1="406.0" x2="406.7" y2="422.0" stroke="#57606a" stroke-width="1" opacity=".38"/>
<rect x="398.7" y="406.8" width="15.8" height="12.6" fill="#57606a" opacity=".22"/>
<line x1="432.9" y1="376.9" x2="432.9" y2="390.6" stroke="#57606a" stroke-width="1" opacity=".38"/>
<rect x="425.0" y="389.4" width="15.8" height="1.0" fill="#57606a" opacity=".22"/>
<line x1="459.1" y1="408.1" x2="459.1" y2="422.1" stroke="#57606a" stroke-width="1" opacity=".38"/>
<rect x="451.2" y="418.6" width="15.8" height="2.6" fill="#57606a" opacity=".22"/>
<line x1="485.3" y1="403.9" x2="485.3" y2="414.5" stroke="#57606a" stroke-width="1" opacity=".38"/>
<rect x="477.4" y="407.6" width="15.8" height="3.0" fill="#57606a" opacity=".22"/>
<line x1="511.5" y1="421.3" x2="511.5" y2="434.5" stroke="#57606a" stroke-width="1" opacity=".38"/>
<rect x="503.6" y="427.9" width="15.8" height="1.0" fill="#57606a" opacity=".22"/>
<line x1="537.7" y1="395.5" x2="537.7" y2="440.4" stroke="#57606a" stroke-width="1" opacity=".38"/>
<rect x="529.8" y="421.9" width="15.8" height="11.3" fill="#57606a" opacity=".22"/>
<line x1="563.9" y1="394.5" x2="563.9" y2="411.1" stroke="#57606a" stroke-width="1" opacity=".38"/>
<rect x="556.0" y="397.3" width="15.8" height="12.1" fill="#57606a" opacity=".22"/>
<line x1="590.1" y1="418.1" x2="590.1" y2="431.8" stroke="#57606a" stroke-width="1" opacity=".38"/>
<rect x="582.2" y="419.4" width="15.8" height="6.5" fill="#57606a" opacity=".22"/>
<line x1="616.3" y1="399.2" x2="616.3" y2="411.3" stroke="#57606a" stroke-width="1" opacity=".38"/>
<rect x="608.4" y="409.5" width="15.8" height="1.0" fill="#57606a" opacity=".22"/>
<line x1="642.5" y1="339.3" x2="642.5" y2="368.4" stroke="#57606a" stroke-width="1" opacity=".38"/>
<rect x="634.6" y="346.8" width="15.8" height="18.9" fill="#57606a" opacity=".22"/>
<line x1="668.7" y1="336.8" x2="668.7" y2="356.4" stroke="#57606a" stroke-width="1" opacity=".38"/>
<rect x="660.8" y="346.7" width="15.8" height="1.0" fill="#57606a" opacity=".22"/>
<line x1="694.9" y1="302.2" x2="694.9" y2="317.2" stroke="#57606a" stroke-width="1" opacity=".38"/>
<rect x="687.0" y="306.5" width="15.8" height="4.6" fill="#57606a" opacity=".22"/>
<line x1="721.1" y1="291.8" x2="721.1" y2="321.4" stroke="#57606a" stroke-width="1" opacity=".38"/>
<rect x="713.2" y="294.6" width="15.8" height="19.5" fill="#57606a" opacity=".22"/>
<line x1="747.3" y1="288.6" x2="747.3" y2="305.4" stroke="#57606a" stroke-width="1" opacity=".38"/>
<rect x="739.4" y="291.0" width="15.8" height="10.0" fill="#57606a" opacity=".22"/>
<line x1="773.5" y1="275.1" x2="773.5" y2="291.9" stroke="#57606a" stroke-width="1" opacity=".38"/>
<rect x="765.6" y="283.4" width="15.8" height="1.6" fill="#57606a" opacity=".22"/>
<line x1="799.7" y1="294.5" x2="799.7" y2="311.9" stroke="#57606a" stroke-width="1" opacity=".38"/>
<rect x="791.8" y="296.1" width="15.8" height="13.0" fill="#57606a" opacity=".22"/>
<line x1="825.9" y1="291.4" x2="825.9" y2="301.1" stroke="#57606a" stroke-width="1" opacity=".38"/>
<rect x="818.0" y="296.1" width="15.8" height="2.8" fill="#57606a" opacity=".22"/>
<line x1="852.2" y1="287.4" x2="852.2" y2="313.5" stroke="#57606a" stroke-width="1" opacity=".38"/>
<rect x="844.2" y="294.6" width="15.8" height="16.2" fill="#57606a" opacity=".22"/>
<line x1="878.4" y1="248.2" x2="878.4" y2="274.7" stroke="#57606a" stroke-width="1" opacity=".38"/>
<rect x="870.4" y="248.9" width="15.8" height="20.4" fill="#57606a" opacity=".22"/>
<line x1="904.6" y1="238.3" x2="904.6" y2="265.2" stroke="#57606a" stroke-width="1" opacity=".38"/>
<rect x="896.6" y="243.2" width="15.8" height="21.0" fill="#57606a" opacity=".22"/>
<line x1="930.8" y1="204.2" x2="930.8" y2="226.3" stroke="#57606a" stroke-width="1" opacity=".38"/>
<rect x="922.8" y="210.4" width="15.8" height="11.5" fill="#57606a" opacity=".22"/>
<line x1="957.0" y1="185.8" x2="957.0" y2="207.0" stroke="#57606a" stroke-width="1" opacity=".38"/>
<rect x="949.1" y="189.4" width="15.8" height="7.5" fill="#57606a" opacity=".22"/>
<line x1="983.2" y1="191.0" x2="983.2" y2="214.5" stroke="#57606a" stroke-width="1" opacity=".38"/>
<rect x="975.3" y="191.3" width="15.8" height="21.4" fill="#57606a" opacity=".22"/>
<line x1="1009.4" y1="203.9" x2="1009.4" y2="222.7" stroke="#57606a" stroke-width="1" opacity=".38"/>
<rect x="1001.5" y="211.8" width="15.8" height="6.8" fill="#57606a" opacity=".22"/>
<line x1="1035.6" y1="210.4" x2="1035.6" y2="230.3" stroke="#57606a" stroke-width="1" opacity=".38"/>
<rect x="1027.7" y="213.4" width="15.8" height="7.2" fill="#57606a" opacity=".22"/>
<line x1="1061.8" y1="204.6" x2="1061.8" y2="274.1" stroke="#57606a" stroke-width="1" opacity=".38"/>
<rect x="1053.9" y="214.9" width="15.8" height="54.0" fill="#57606a" opacity=".22"/>
<line x1="1088.0" y1="269.3" x2="1088.0" y2="285.1" stroke="#57606a" stroke-width="1" opacity=".38"/>
<rect x="1080.1" y="270.8" width="15.8" height="2.7" fill="#57606a" opacity=".22"/>
<line x1="57.1" y1="466.8" x2="74.9" y2="466.8" stroke="#1a7f37" stroke-width="5.0" opacity="0.95"/>
<line x1="57.1" y1="507.2" x2="74.9" y2="507.2" stroke="#3fb950" stroke-width="3.6" opacity="0.71"/>
<line x1="57.1" y1="568.0" x2="74.9" y2="568.0" stroke="#7ee787" stroke-width="2.2" opacity="0.47"/>
<line x1="57.1" y1="224.0" x2="74.9" y2="224.0" stroke="#cf222e" stroke-width="5.0" opacity="0.95"/>
<line x1="57.1" y1="304.9" x2="74.9" y2="304.9" stroke="#f85149" stroke-width="3.6" opacity="0.71"/>
<line x1="57.1" y1="264.4" x2="74.9" y2="264.4" stroke="#ffa198" stroke-width="2.2" opacity="0.47"/>
<line x1="83.3" y1="466.8" x2="101.1" y2="466.8" stroke="#1a7f37" stroke-width="5.0" opacity="0.95"/>
<line x1="83.3" y1="507.2" x2="101.1" y2="507.2" stroke="#3fb950" stroke-width="3.6" opacity="0.71"/>
<line x1="83.3" y1="426.3" x2="101.1" y2="426.3" stroke="#7ee787" stroke-width="2.2" opacity="0.47"/>
<line x1="83.3" y1="304.9" x2="101.1" y2="304.9" stroke="#cf222e" stroke-width="5.0" opacity="0.95"/>
<line x1="83.3" y1="224.0" x2="101.1" y2="224.0" stroke="#f85149" stroke-width="3.6" opacity="0.71"/>
<line x1="83.3" y1="264.4" x2="101.1" y2="264.4" stroke="#ffa198" stroke-width="2.2" opacity="0.47"/>
<line x1="109.5" y1="466.8" x2="127.3" y2="466.8" stroke="#1a7f37" stroke-width="5.0" opacity="0.95"/>
<line x1="109.5" y1="507.2" x2="127.3" y2="507.2" stroke="#3fb950" stroke-width="3.6" opacity="0.71"/>
<line x1="109.5" y1="568.0" x2="127.3" y2="568.0" stroke="#7ee787" stroke-width="2.2" opacity="0.47"/>
<line x1="109.5" y1="304.9" x2="127.3" y2="304.9" stroke="#cf222e" stroke-width="5.0" opacity="0.95"/>
<line x1="109.5" y1="224.0" x2="127.3" y2="224.0" stroke="#f85149" stroke-width="3.6" opacity="0.71"/>
<line x1="109.5" y1="244.2" x2="127.3" y2="244.2" stroke="#ffa198" stroke-width="2.2" opacity="0.47"/>
<line x1="135.7" y1="466.8" x2="153.5" y2="466.8" stroke="#1a7f37" stroke-width="5.0" opacity="0.95"/>
<line x1="135.7" y1="507.2" x2="153.5" y2="507.2" stroke="#3fb950" stroke-width="3.6" opacity="0.71"/>
<line x1="135.7" y1="568.0" x2="153.5" y2="568.0" stroke="#7ee787" stroke-width="2.2" opacity="0.47"/>
<line x1="135.7" y1="304.9" x2="153.5" y2="304.9" stroke="#cf222e" stroke-width="5.0" opacity="0.95"/>
<line x1="135.7" y1="224.0" x2="153.5" y2="224.0" stroke="#f85149" stroke-width="3.6" opacity="0.71"/>
<line x1="135.7" y1="244.2" x2="153.5" y2="244.2" stroke="#ffa198" stroke-width="2.2" opacity="0.47"/>
<line x1="161.9" y1="466.8" x2="179.7" y2="466.8" stroke="#1a7f37" stroke-width="5.0" opacity="0.95"/>
<line x1="161.9" y1="507.2" x2="179.7" y2="507.2" stroke="#3fb950" stroke-width="3.6" opacity="0.71"/>
<line x1="161.9" y1="426.3" x2="179.7" y2="426.3" stroke="#7ee787" stroke-width="2.2" opacity="0.47"/>
<line x1="161.9" y1="304.9" x2="179.7" y2="304.9" stroke="#cf222e" stroke-width="5.0" opacity="0.95"/>
<line x1="161.9" y1="224.0" x2="179.7" y2="224.0" stroke="#f85149" stroke-width="3.6" opacity="0.71"/>
<line x1="161.9" y1="244.2" x2="179.7" y2="244.2" stroke="#ffa198" stroke-width="2.2" opacity="0.47"/>
<line x1="188.1" y1="466.8" x2="205.9" y2="466.8" stroke="#1a7f37" stroke-width="5.0" opacity="0.95"/>
<line x1="188.1" y1="507.2" x2="205.9" y2="507.2" stroke="#3fb950" stroke-width="3.6" opacity="0.71"/>
<line x1="188.1" y1="426.3" x2="205.9" y2="426.3" stroke="#7ee787" stroke-width="2.2" opacity="0.47"/>
<line x1="188.1" y1="304.9" x2="205.9" y2="304.9" stroke="#cf222e" stroke-width="5.0" opacity="0.95"/>
<line x1="188.1" y1="224.0" x2="205.9" y2="224.0" stroke="#f85149" stroke-width="3.6" opacity="0.71"/>
<line x1="188.1" y1="244.2" x2="205.9" y2="244.2" stroke="#ffa198" stroke-width="2.2" opacity="0.47"/>
<line x1="214.3" y1="466.8" x2="232.2" y2="466.8" stroke="#1a7f37" stroke-width="5.0" opacity="0.95"/>
<line x1="214.3" y1="507.2" x2="232.2" y2="507.2" stroke="#3fb950" stroke-width="3.6" opacity="0.71"/>
<line x1="214.3" y1="426.3" x2="232.2" y2="426.3" stroke="#7ee787" stroke-width="2.2" opacity="0.47"/>
<line x1="214.3" y1="304.9" x2="232.2" y2="304.9" stroke="#cf222e" stroke-width="5.0" opacity="0.95"/>
<line x1="214.3" y1="224.0" x2="232.2" y2="224.0" stroke="#f85149" stroke-width="3.6" opacity="0.71"/>
<line x1="214.3" y1="244.2" x2="232.2" y2="244.2" stroke="#ffa198" stroke-width="2.2" opacity="0.47"/>
<line x1="240.5" y1="466.8" x2="258.4" y2="466.8" stroke="#1a7f37" stroke-width="5.0" opacity="0.95"/>
<line x1="240.5" y1="507.2" x2="258.4" y2="507.2" stroke="#3fb950" stroke-width="3.6" opacity="0.71"/>
<line x1="240.5" y1="426.3" x2="258.4" y2="426.3" stroke="#7ee787" stroke-width="2.2" opacity="0.47"/>
<line x1="240.5" y1="304.9" x2="258.4" y2="304.9" stroke="#cf222e" stroke-width="5.0" opacity="0.95"/>
<line x1="240.5" y1="224.0" x2="258.4" y2="224.0" stroke="#f85149" stroke-width="3.6" opacity="0.71"/>
<line x1="240.5" y1="244.2" x2="258.4" y2="244.2" stroke="#ffa198" stroke-width="2.2" opacity="0.47"/>
<line x1="266.7" y1="466.8" x2="284.6" y2="466.8" stroke="#1a7f37" stroke-width="5.0" opacity="0.95"/>
<line x1="266.7" y1="507.2" x2="284.6" y2="507.2" stroke="#3fb950" stroke-width="3.6" opacity="0.71"/>
<line x1="266.7" y1="426.3" x2="284.6" y2="426.3" stroke="#7ee787" stroke-width="2.2" opacity="0.47"/>
<line x1="266.7" y1="304.9" x2="284.6" y2="304.9" stroke="#cf222e" stroke-width="5.0" opacity="0.95"/>
<line x1="266.7" y1="224.0" x2="284.6" y2="224.0" stroke="#f85149" stroke-width="3.6" opacity="0.71"/>
<line x1="266.7" y1="244.2" x2="284.6" y2="244.2" stroke="#ffa198" stroke-width="2.2" opacity="0.47"/>
<line x1="292.9" y1="466.8" x2="310.8" y2="466.8" stroke="#1a7f37" stroke-width="5.0" opacity="0.95"/>
<line x1="292.9" y1="507.2" x2="310.8" y2="507.2" stroke="#3fb950" stroke-width="3.6" opacity="0.71"/>
<line x1="292.9" y1="568.0" x2="310.8" y2="568.0" stroke="#7ee787" stroke-width="2.2" opacity="0.47"/>
<line x1="292.9" y1="304.9" x2="310.8" y2="304.9" stroke="#cf222e" stroke-width="5.0" opacity="0.95"/>
<line x1="292.9" y1="224.0" x2="310.8" y2="224.0" stroke="#f85149" stroke-width="3.6" opacity="0.71"/>
<line x1="292.9" y1="244.2" x2="310.8" y2="244.2" stroke="#ffa198" stroke-width="2.2" opacity="0.47"/>
<line x1="319.1" y1="466.8" x2="337.0" y2="466.8" stroke="#1a7f37" stroke-width="5.0" opacity="0.95"/>
<line x1="319.1" y1="507.2" x2="337.0" y2="507.2" stroke="#3fb950" stroke-width="3.6" opacity="0.71"/>
<line x1="319.1" y1="426.3" x2="337.0" y2="426.3" stroke="#7ee787" stroke-width="2.2" opacity="0.47"/>
<line x1="319.1" y1="304.9" x2="337.0" y2="304.9" stroke="#cf222e" stroke-width="5.0" opacity="0.95"/>
<line x1="319.1" y1="224.0" x2="337.0" y2="224.0" stroke="#f85149" stroke-width="3.6" opacity="0.71"/>
<line x1="319.1" y1="244.2" x2="337.0" y2="244.2" stroke="#ffa198" stroke-width="2.2" opacity="0.47"/>
<line x1="345.3" y1="507.2" x2="363.2" y2="507.2" stroke="#1a7f37" stroke-width="5.0" opacity="0.95"/>
<line x1="345.3" y1="466.8" x2="363.2" y2="466.8" stroke="#3fb950" stroke-width="3.6" opacity="0.71"/>
<line x1="345.3" y1="426.3" x2="363.2" y2="426.3" stroke="#7ee787" stroke-width="2.2" opacity="0.47"/>
<line x1="345.3" y1="304.9" x2="363.2" y2="304.9" stroke="#cf222e" stroke-width="5.0" opacity="0.95"/>
<line x1="345.3" y1="224.0" x2="363.2" y2="224.0" stroke="#f85149" stroke-width="3.6" opacity="0.71"/>
<line x1="345.3" y1="244.2" x2="363.2" y2="244.2" stroke="#ffa198" stroke-width="2.2" opacity="0.47"/>
<line x1="371.5" y1="507.2" x2="389.4" y2="507.2" stroke="#1a7f37" stroke-width="5.0" opacity="0.95"/>
<line x1="371.5" y1="466.8" x2="389.4" y2="466.8" stroke="#3fb950" stroke-width="3.6" opacity="0.71"/>
<line x1="371.5" y1="568.0" x2="389.4" y2="568.0" stroke="#7ee787" stroke-width="2.2" opacity="0.47"/>
<line x1="371.5" y1="304.9" x2="389.4" y2="304.9" stroke="#cf222e" stroke-width="5.0" opacity="0.95"/>
<line x1="371.5" y1="244.2" x2="389.4" y2="244.2" stroke="#f85149" stroke-width="3.6" opacity="0.71"/>
<line x1="371.5" y1="385.8" x2="389.4" y2="385.8" stroke="#ffa198" stroke-width="2.2" opacity="0.47"/>
<line x1="397.7" y1="507.2" x2="415.6" y2="507.2" stroke="#1a7f37" stroke-width="5.0" opacity="0.95"/>
<line x1="397.7" y1="568.0" x2="415.6" y2="568.0" stroke="#3fb950" stroke-width="3.6" opacity="0.71"/>
<line x1="397.7" y1="426.3" x2="415.6" y2="426.3" stroke="#7ee787" stroke-width="2.2" opacity="0.47"/>
<line x1="397.7" y1="304.9" x2="415.6" y2="304.9" stroke="#cf222e" stroke-width="5.0" opacity="0.95"/>
<line x1="397.7" y1="244.2" x2="415.6" y2="244.2" stroke="#f85149" stroke-width="3.6" opacity="0.71"/>
<line x1="397.7" y1="224.0" x2="415.6" y2="224.0" stroke="#ffa198" stroke-width="2.2" opacity="0.47"/>
<line x1="424.0" y1="507.2" x2="441.8" y2="507.2" stroke="#1a7f37" stroke-width="5.0" opacity="0.95"/>
<line x1="424.0" y1="568.0" x2="441.8" y2="568.0" stroke="#3fb950" stroke-width="3.6" opacity="0.71"/>
<line x1="424.0" y1="426.3" x2="441.8" y2="426.3" stroke="#7ee787" stroke-width="2.2" opacity="0.47"/>
<line x1="424.0" y1="304.9" x2="441.8" y2="304.9" stroke="#cf222e" stroke-width="5.0" opacity="0.95"/>
<line x1="424.0" y1="244.2" x2="441.8" y2="244.2" stroke="#f85149" stroke-width="3.6" opacity="0.71"/>
<line x1="424.0" y1="224.0" x2="441.8" y2="224.0" stroke="#ffa198" stroke-width="2.2" opacity="0.47"/>
<line x1="450.2" y1="507.2" x2="468.0" y2="507.2" stroke="#1a7f37" stroke-width="5.0" opacity="0.95"/>
<line x1="450.2" y1="568.0" x2="468.0" y2="568.0" stroke="#3fb950" stroke-width="3.6" opacity="0.71"/>
<line x1="450.2" y1="426.3" x2="468.0" y2="426.3" stroke="#7ee787" stroke-width="2.2" opacity="0.47"/>
<line x1="450.2" y1="304.9" x2="468.0" y2="304.9" stroke="#cf222e" stroke-width="5.0" opacity="0.95"/>
<line x1="450.2" y1="244.2" x2="468.0" y2="244.2" stroke="#f85149" stroke-width="3.6" opacity="0.71"/>
<line x1="450.2" y1="203.7" x2="468.0" y2="203.7" stroke="#ffa198" stroke-width="2.2" opacity="0.47"/>
<line x1="476.4" y1="507.2" x2="494.2" y2="507.2" stroke="#1a7f37" stroke-width="5.0" opacity="0.95"/>
<line x1="476.4" y1="568.0" x2="494.2" y2="568.0" stroke="#3fb950" stroke-width="3.6" opacity="0.71"/>
<line x1="476.4" y1="426.3" x2="494.2" y2="426.3" stroke="#7ee787" stroke-width="2.2" opacity="0.47"/>
<line x1="476.4" y1="304.9" x2="494.2" y2="304.9" stroke="#cf222e" stroke-width="5.0" opacity="0.95"/>
<line x1="476.4" y1="244.2" x2="494.2" y2="244.2" stroke="#f85149" stroke-width="3.6" opacity="0.71"/>
<line x1="476.4" y1="224.0" x2="494.2" y2="224.0" stroke="#ffa198" stroke-width="2.2" opacity="0.47"/>
<line x1="502.6" y1="507.2" x2="520.4" y2="507.2" stroke="#1a7f37" stroke-width="5.0" opacity="0.95"/>
<line x1="502.6" y1="568.0" x2="520.4" y2="568.0" stroke="#3fb950" stroke-width="3.6" opacity="0.71"/>
<line x1="502.6" y1="426.3" x2="520.4" y2="426.3" stroke="#7ee787" stroke-width="2.2" opacity="0.47"/>
<line x1="502.6" y1="304.9" x2="520.4" y2="304.9" stroke="#cf222e" stroke-width="5.0" opacity="0.95"/>
<line x1="502.6" y1="244.2" x2="520.4" y2="244.2" stroke="#f85149" stroke-width="3.6" opacity="0.71"/>
<line x1="502.6" y1="224.0" x2="520.4" y2="224.0" stroke="#ffa198" stroke-width="2.2" opacity="0.47"/>
<line x1="528.8" y1="507.2" x2="546.6" y2="507.2" stroke="#1a7f37" stroke-width="5.0" opacity="0.95"/>
<line x1="528.8" y1="568.0" x2="546.6" y2="568.0" stroke="#3fb950" stroke-width="3.6" opacity="0.71"/>
<line x1="528.8" y1="547.7" x2="546.6" y2="547.7" stroke="#7ee787" stroke-width="2.2" opacity="0.47"/>
<line x1="528.8" y1="304.9" x2="546.6" y2="304.9" stroke="#cf222e" stroke-width="5.0" opacity="0.95"/>
<line x1="528.8" y1="244.2" x2="546.6" y2="244.2" stroke="#f85149" stroke-width="3.6" opacity="0.71"/>
<line x1="528.8" y1="385.8" x2="546.6" y2="385.8" stroke="#ffa198" stroke-width="2.2" opacity="0.47"/>
<line x1="555.0" y1="507.2" x2="572.8" y2="507.2" stroke="#1a7f37" stroke-width="5.0" opacity="0.95"/>
<line x1="555.0" y1="568.0" x2="572.8" y2="568.0" stroke="#3fb950" stroke-width="3.6" opacity="0.71"/>
<line x1="555.0" y1="426.3" x2="572.8" y2="426.3" stroke="#7ee787" stroke-width="2.2" opacity="0.47"/>
<line x1="555.0" y1="304.9" x2="572.8" y2="304.9" stroke="#cf222e" stroke-width="5.0" opacity="0.95"/>
<line x1="555.0" y1="385.8" x2="572.8" y2="385.8" stroke="#f85149" stroke-width="3.6" opacity="0.71"/>
<line x1="555.0" y1="244.2" x2="572.8" y2="244.2" stroke="#ffa198" stroke-width="2.2" opacity="0.47"/>
<line x1="581.2" y1="507.2" x2="599.0" y2="507.2" stroke="#1a7f37" stroke-width="5.0" opacity="0.95"/>
<line x1="581.2" y1="568.0" x2="599.0" y2="568.0" stroke="#3fb950" stroke-width="3.6" opacity="0.71"/>
<line x1="581.2" y1="426.3" x2="599.0" y2="426.3" stroke="#7ee787" stroke-width="2.2" opacity="0.47"/>
<line x1="581.2" y1="304.9" x2="599.0" y2="304.9" stroke="#cf222e" stroke-width="5.0" opacity="0.95"/>
<line x1="581.2" y1="203.7" x2="599.0" y2="203.7" stroke="#f85149" stroke-width="3.6" opacity="0.71"/>
<line x1="581.2" y1="224.0" x2="599.0" y2="224.0" stroke="#ffa198" stroke-width="2.2" opacity="0.47"/>
<line x1="607.4" y1="507.2" x2="625.2" y2="507.2" stroke="#1a7f37" stroke-width="5.0" opacity="0.95"/>
<line x1="607.4" y1="568.0" x2="625.2" y2="568.0" stroke="#3fb950" stroke-width="3.6" opacity="0.71"/>
<line x1="607.4" y1="426.3" x2="625.2" y2="426.3" stroke="#7ee787" stroke-width="2.2" opacity="0.47"/>
<line x1="607.4" y1="304.9" x2="625.2" y2="304.9" stroke="#cf222e" stroke-width="5.0" opacity="0.95"/>
<line x1="607.4" y1="203.7" x2="625.2" y2="203.7" stroke="#f85149" stroke-width="3.6" opacity="0.71"/>
<line x1="607.4" y1="224.0" x2="625.2" y2="224.0" stroke="#ffa198" stroke-width="2.2" opacity="0.47"/>
<line x1="633.6" y1="507.2" x2="651.4" y2="507.2" stroke="#1a7f37" stroke-width="5.0" opacity="0.95"/>
<line x1="633.6" y1="568.0" x2="651.4" y2="568.0" stroke="#3fb950" stroke-width="3.6" opacity="0.71"/>
<line x1="633.6" y1="426.3" x2="651.4" y2="426.3" stroke="#7ee787" stroke-width="2.2" opacity="0.47"/>
<line x1="633.6" y1="304.9" x2="651.4" y2="304.9" stroke="#cf222e" stroke-width="5.0" opacity="0.95"/>
<line x1="633.6" y1="203.7" x2="651.4" y2="203.7" stroke="#f85149" stroke-width="3.6" opacity="0.71"/>
<line x1="633.6" y1="224.0" x2="651.4" y2="224.0" stroke="#ffa198" stroke-width="2.2" opacity="0.47"/>
<line x1="659.8" y1="507.2" x2="677.6" y2="507.2" stroke="#1a7f37" stroke-width="5.0" opacity="0.95"/>
<line x1="659.8" y1="568.0" x2="677.6" y2="568.0" stroke="#3fb950" stroke-width="3.6" opacity="0.71"/>
<line x1="659.8" y1="547.7" x2="677.6" y2="547.7" stroke="#7ee787" stroke-width="2.2" opacity="0.47"/>
<line x1="659.8" y1="304.9" x2="677.6" y2="304.9" stroke="#cf222e" stroke-width="5.0" opacity="0.95"/>
<line x1="659.8" y1="203.7" x2="677.6" y2="203.7" stroke="#f85149" stroke-width="3.6" opacity="0.71"/>
<line x1="659.8" y1="224.0" x2="677.6" y2="224.0" stroke="#ffa198" stroke-width="2.2" opacity="0.47"/>
<line x1="686.0" y1="507.2" x2="703.8" y2="507.2" stroke="#1a7f37" stroke-width="5.0" opacity="0.95"/>
<line x1="686.0" y1="568.0" x2="703.8" y2="568.0" stroke="#3fb950" stroke-width="3.6" opacity="0.71"/>
<line x1="686.0" y1="547.7" x2="703.8" y2="547.7" stroke="#7ee787" stroke-width="2.2" opacity="0.47"/>
<line x1="686.0" y1="304.9" x2="703.8" y2="304.9" stroke="#cf222e" stroke-width="5.0" opacity="0.95"/>
<line x1="686.0" y1="203.7" x2="703.8" y2="203.7" stroke="#f85149" stroke-width="3.6" opacity="0.71"/>
<line x1="686.0" y1="224.0" x2="703.8" y2="224.0" stroke="#ffa198" stroke-width="2.2" opacity="0.47"/>
<line x1="712.2" y1="507.2" x2="730.0" y2="507.2" stroke="#1a7f37" stroke-width="5.0" opacity="0.95"/>
<line x1="712.2" y1="426.3" x2="730.0" y2="426.3" stroke="#3fb950" stroke-width="3.6" opacity="0.71"/>
<line x1="712.2" y1="547.7" x2="730.0" y2="547.7" stroke="#7ee787" stroke-width="2.2" opacity="0.47"/>
<line x1="712.2" y1="304.9" x2="730.0" y2="304.9" stroke="#cf222e" stroke-width="5.0" opacity="0.95"/>
<line x1="712.2" y1="264.4" x2="730.0" y2="264.4" stroke="#f85149" stroke-width="3.6" opacity="0.71"/>
<line x1="712.2" y1="183.5" x2="730.0" y2="183.5" stroke="#ffa198" stroke-width="2.2" opacity="0.47"/>
<line x1="738.4" y1="507.2" x2="756.3" y2="507.2" stroke="#1a7f37" stroke-width="5.0" opacity="0.95"/>
<line x1="738.4" y1="527.5" x2="756.3" y2="527.5" stroke="#3fb950" stroke-width="3.6" opacity="0.71"/>
<line x1="738.4" y1="426.3" x2="756.3" y2="426.3" stroke="#7ee787" stroke-width="2.2" opacity="0.47"/>
<line x1="738.4" y1="62.1" x2="756.3" y2="62.1" stroke="#cf222e" stroke-width="5.0" opacity="0.95"/>
<line x1="738.4" y1="264.4" x2="756.3" y2="264.4" stroke="#f85149" stroke-width="3.6" opacity="0.71"/>
<line x1="738.4" y1="183.5" x2="756.3" y2="183.5" stroke="#ffa198" stroke-width="2.2" opacity="0.47"/>
<line x1="764.6" y1="507.2" x2="782.5" y2="507.2" stroke="#1a7f37" stroke-width="5.0" opacity="0.95"/>
<line x1="764.6" y1="527.5" x2="782.5" y2="527.5" stroke="#3fb950" stroke-width="3.6" opacity="0.71"/>
<line x1="764.6" y1="304.9" x2="782.5" y2="304.9" stroke="#7ee787" stroke-width="2.2" opacity="0.47"/>
<line x1="764.6" y1="224.0" x2="782.5" y2="224.0" stroke="#cf222e" stroke-width="5.0" opacity="0.95"/>
<line x1="764.6" y1="264.4" x2="782.5" y2="264.4" stroke="#f85149" stroke-width="3.6" opacity="0.71"/>
<line x1="764.6" y1="183.5" x2="782.5" y2="183.5" stroke="#ffa198" stroke-width="2.2" opacity="0.47"/>
<line x1="790.8" y1="507.2" x2="808.7" y2="507.2" stroke="#1a7f37" stroke-width="5.0" opacity="0.95"/>
<line x1="790.8" y1="527.5" x2="808.7" y2="527.5" stroke="#3fb950" stroke-width="3.6" opacity="0.71"/>
<line x1="790.8" y1="345.4" x2="808.7" y2="345.4" stroke="#7ee787" stroke-width="2.2" opacity="0.47"/>
<line x1="790.8" y1="224.0" x2="808.7" y2="224.0" stroke="#cf222e" stroke-width="5.0" opacity="0.95"/>
<line x1="790.8" y1="264.4" x2="808.7" y2="264.4" stroke="#f85149" stroke-width="3.6" opacity="0.71"/>
<line x1="790.8" y1="183.5" x2="808.7" y2="183.5" stroke="#ffa198" stroke-width="2.2" opacity="0.47"/>
<line x1="817.0" y1="507.2" x2="834.9" y2="507.2" stroke="#1a7f37" stroke-width="5.0" opacity="0.95"/>
<line x1="817.0" y1="547.7" x2="834.9" y2="547.7" stroke="#3fb950" stroke-width="3.6" opacity="0.71"/>
<line x1="817.0" y1="527.5" x2="834.9" y2="527.5" stroke="#7ee787" stroke-width="2.2" opacity="0.47"/>
<line x1="817.0" y1="224.0" x2="834.9" y2="224.0" stroke="#cf222e" stroke-width="5.0" opacity="0.95"/>
<line x1="817.0" y1="183.5" x2="834.9" y2="183.5" stroke="#f85149" stroke-width="3.6" opacity="0.71"/>
<line x1="817.0" y1="264.4" x2="834.9" y2="264.4" stroke="#ffa198" stroke-width="2.2" opacity="0.47"/>
<line x1="843.2" y1="507.2" x2="861.1" y2="507.2" stroke="#1a7f37" stroke-width="5.0" opacity="0.95"/>
<line x1="843.2" y1="527.5" x2="861.1" y2="527.5" stroke="#3fb950" stroke-width="3.6" opacity="0.71"/>
<line x1="843.2" y1="345.4" x2="861.1" y2="345.4" stroke="#7ee787" stroke-width="2.2" opacity="0.47"/>
<line x1="843.2" y1="224.0" x2="861.1" y2="224.0" stroke="#cf222e" stroke-width="5.0" opacity="0.95"/>
<line x1="843.2" y1="183.5" x2="861.1" y2="183.5" stroke="#f85149" stroke-width="3.6" opacity="0.71"/>
<line x1="843.2" y1="62.1" x2="861.1" y2="62.1" stroke="#ffa198" stroke-width="2.2" opacity="0.47"/>
<line x1="869.4" y1="507.2" x2="887.3" y2="507.2" stroke="#1a7f37" stroke-width="5.0" opacity="0.95"/>
<line x1="869.4" y1="527.5" x2="887.3" y2="527.5" stroke="#3fb950" stroke-width="3.6" opacity="0.71"/>
<line x1="869.4" y1="345.4" x2="887.3" y2="345.4" stroke="#7ee787" stroke-width="2.2" opacity="0.47"/>
<line x1="869.4" y1="224.0" x2="887.3" y2="224.0" stroke="#cf222e" stroke-width="5.0" opacity="0.95"/>
<line x1="869.4" y1="62.1" x2="887.3" y2="62.1" stroke="#f85149" stroke-width="3.6" opacity="0.71"/>
<line x1="869.4" y1="122.8" x2="887.3" y2="122.8" stroke="#ffa198" stroke-width="2.2" opacity="0.47"/>
<line x1="895.6" y1="507.2" x2="913.5" y2="507.2" stroke="#1a7f37" stroke-width="5.0" opacity="0.95"/>
<line x1="895.6" y1="304.9" x2="913.5" y2="304.9" stroke="#3fb950" stroke-width="3.6" opacity="0.71"/>
<line x1="895.6" y1="345.4" x2="913.5" y2="345.4" stroke="#7ee787" stroke-width="2.2" opacity="0.47"/>
<line x1="895.6" y1="224.0" x2="913.5" y2="224.0" stroke="#cf222e" stroke-width="5.0" opacity="0.95"/>
<line x1="895.6" y1="122.8" x2="913.5" y2="122.8" stroke="#f85149" stroke-width="3.6" opacity="0.71"/>
<line x1="895.6" y1="203.7" x2="913.5" y2="203.7" stroke="#ffa198" stroke-width="2.2" opacity="0.47"/>
<line x1="921.8" y1="304.9" x2="939.7" y2="304.9" stroke="#1a7f37" stroke-width="5.0" opacity="0.95"/>
<line x1="921.8" y1="345.4" x2="939.7" y2="345.4" stroke="#3fb950" stroke-width="3.6" opacity="0.71"/>
<line x1="921.8" y1="426.3" x2="939.7" y2="426.3" stroke="#7ee787" stroke-width="2.2" opacity="0.47"/>
<line x1="921.8" y1="122.8" x2="939.7" y2="122.8" stroke="#cf222e" stroke-width="5.0" opacity="0.95"/>
<line x1="921.8" y1="203.7" x2="939.7" y2="203.7" stroke="#f85149" stroke-width="3.6" opacity="0.71"/>
<line x1="921.8" y1="62.1" x2="939.7" y2="62.1" stroke="#ffa198" stroke-width="2.2" opacity="0.47"/>
<line x1="948.1" y1="345.4" x2="965.9" y2="345.4" stroke="#1a7f37" stroke-width="5.0" opacity="0.95"/>
<line x1="948.1" y1="304.9" x2="965.9" y2="304.9" stroke="#3fb950" stroke-width="3.6" opacity="0.71"/>
<line x1="948.1" y1="385.8" x2="965.9" y2="385.8" stroke="#7ee787" stroke-width="2.2" opacity="0.47"/>
<line x1="948.1" y1="122.8" x2="965.9" y2="122.8" stroke="#cf222e" stroke-width="5.0" opacity="0.95"/>
<line x1="948.1" y1="203.7" x2="965.9" y2="203.7" stroke="#f85149" stroke-width="3.6" opacity="0.71"/>
<line x1="948.1" y1="62.1" x2="965.9" y2="62.1" stroke="#ffa198" stroke-width="2.2" opacity="0.47"/>
<line x1="974.3" y1="304.9" x2="992.1" y2="304.9" stroke="#1a7f37" stroke-width="5.0" opacity="0.95"/>
<line x1="974.3" y1="345.4" x2="992.1" y2="345.4" stroke="#3fb950" stroke-width="3.6" opacity="0.71"/>
<line x1="974.3" y1="385.8" x2="992.1" y2="385.8" stroke="#7ee787" stroke-width="2.2" opacity="0.47"/>
<line x1="974.3" y1="183.5" x2="992.1" y2="183.5" stroke="#cf222e" stroke-width="5.0" opacity="0.95"/>
<line x1="974.3" y1="122.8" x2="992.1" y2="122.8" stroke="#f85149" stroke-width="3.6" opacity="0.71"/>
<line x1="974.3" y1="62.1" x2="992.1" y2="62.1" stroke="#ffa198" stroke-width="2.2" opacity="0.47"/>
<line x1="1000.5" y1="304.9" x2="1018.3" y2="304.9" stroke="#1a7f37" stroke-width="5.0" opacity="0.95"/>
<line x1="1000.5" y1="345.4" x2="1018.3" y2="345.4" stroke="#3fb950" stroke-width="3.6" opacity="0.71"/>
<line x1="1000.5" y1="224.0" x2="1018.3" y2="224.0" stroke="#7ee787" stroke-width="2.2" opacity="0.47"/>
<line x1="1000.5" y1="183.5" x2="1018.3" y2="183.5" stroke="#cf222e" stroke-width="5.0" opacity="0.95"/>
<line x1="1000.5" y1="122.8" x2="1018.3" y2="122.8" stroke="#f85149" stroke-width="3.6" opacity="0.71"/>
<line x1="1000.5" y1="102.6" x2="1018.3" y2="102.6" stroke="#ffa198" stroke-width="2.2" opacity="0.47"/>
<line x1="1026.7" y1="304.9" x2="1044.5" y2="304.9" stroke="#1a7f37" stroke-width="5.0" opacity="0.95"/>
<line x1="1026.7" y1="345.4" x2="1044.5" y2="345.4" stroke="#3fb950" stroke-width="3.6" opacity="0.71"/>
<line x1="1026.7" y1="224.0" x2="1044.5" y2="224.0" stroke="#7ee787" stroke-width="2.2" opacity="0.47"/>
<line x1="1026.7" y1="183.5" x2="1044.5" y2="183.5" stroke="#cf222e" stroke-width="5.0" opacity="0.95"/>
<line x1="1026.7" y1="122.8" x2="1044.5" y2="122.8" stroke="#f85149" stroke-width="3.6" opacity="0.71"/>
<line x1="1026.7" y1="102.6" x2="1044.5" y2="102.6" stroke="#ffa198" stroke-width="2.2" opacity="0.47"/>
<line x1="1052.9" y1="304.9" x2="1070.7" y2="304.9" stroke="#1a7f37" stroke-width="5.0" opacity="0.95"/>
<line x1="1052.9" y1="345.4" x2="1070.7" y2="345.4" stroke="#3fb950" stroke-width="3.6" opacity="0.71"/>
<line x1="1052.9" y1="224.0" x2="1070.7" y2="224.0" stroke="#7ee787" stroke-width="2.2" opacity="0.47"/>
<line x1="1052.9" y1="183.5" x2="1070.7" y2="183.5" stroke="#cf222e" stroke-width="5.0" opacity="0.95"/>
<line x1="1052.9" y1="122.8" x2="1070.7" y2="122.8" stroke="#f85149" stroke-width="3.6" opacity="0.71"/>
<line x1="1052.9" y1="102.6" x2="1070.7" y2="102.6" stroke="#ffa198" stroke-width="2.2" opacity="0.47"/>
<line x1="1079.1" y1="507.2" x2="1096.9" y2="507.2" stroke="#1a7f37" stroke-width="5.0" opacity="0.95"/>
<line x1="1079.1" y1="304.9" x2="1096.9" y2="304.9" stroke="#3fb950" stroke-width="3.6" opacity="0.71"/>
<line x1="1079.1" y1="345.4" x2="1096.9" y2="345.4" stroke="#7ee787" stroke-width="2.2" opacity="0.47"/>
<line x1="1079.1" y1="183.5" x2="1096.9" y2="183.5" stroke="#cf222e" stroke-width="5.0" opacity="0.95"/>
<line x1="1079.1" y1="122.8" x2="1096.9" y2="122.8" stroke="#f85149" stroke-width="3.6" opacity="0.71"/>
<line x1="1079.1" y1="102.6" x2="1096.9" y2="102.6" stroke="#ffa198" stroke-width="2.2" opacity="0.47"/>
<polyline points="66.0,428.5 92.2,411.6 118.4,432.1 144.6,432.9 170.8,393.4 197.0,396.0 223.2,408.3 249.4,393.2 275.6,397.9 301.8,417.6 328.1,416.8 354.3,446.7 380.5,432.7 406.7,406.8 432.9,389.4 459.1,418.6 485.3,407.6 511.5,428.9 537.7,421.9 563.9,397.3 590.1,419.4 616.3,409.5 642.5,346.8 668.7,346.7 694.9,311.1 721.1,294.6 747.3,301.0 773.5,285.0 799.7,309.1 825.9,298.9 852.2,310.8 878.4,248.9 904.6,243.2 930.8,210.4 957.0,196.9 983.2,191.3 1009.4,218.6 1035.6,213.4 1061.8,268.9 1088.0,270.8" fill="none" stroke="#0969da" stroke-width="2.4"/>
<circle cx="66.0" cy="428.5" r="2.3" fill="#0969da"/>
<circle cx="92.2" cy="411.6" r="2.3" fill="#0969da"/>
<circle cx="118.4" cy="432.1" r="2.3" fill="#0969da"/>
<circle cx="144.6" cy="432.9" r="2.3" fill="#0969da"/>
<circle cx="170.8" cy="393.4" r="2.3" fill="#0969da"/>
<circle cx="197.0" cy="396.0" r="2.3" fill="#0969da"/>
<circle cx="223.2" cy="408.3" r="2.3" fill="#0969da"/>
<circle cx="249.4" cy="393.2" r="2.3" fill="#0969da"/>
<circle cx="275.6" cy="397.9" r="2.3" fill="#0969da"/>
<circle cx="301.8" cy="417.6" r="2.3" fill="#0969da"/>
<circle cx="328.1" cy="416.8" r="2.3" fill="#0969da"/>
<circle cx="354.3" cy="446.7" r="2.3" fill="#0969da"/>
<circle cx="380.5" cy="432.7" r="2.3" fill="#0969da"/>
<circle cx="406.7" cy="406.8" r="2.3" fill="#0969da"/>
<circle cx="432.9" cy="389.4" r="2.3" fill="#0969da"/>
<circle cx="459.1" cy="418.6" r="2.3" fill="#0969da"/>
<circle cx="485.3" cy="407.6" r="2.3" fill="#0969da"/>
<circle cx="511.5" cy="428.9" r="2.3" fill="#0969da"/>
<circle cx="537.7" cy="421.9" r="2.3" fill="#0969da"/>
<circle cx="563.9" cy="397.3" r="2.3" fill="#0969da"/>
<circle cx="590.1" cy="419.4" r="2.3" fill="#0969da"/>
<circle cx="616.3" cy="409.5" r="2.3" fill="#0969da"/>
<circle cx="642.5" cy="346.8" r="2.3" fill="#0969da"/>
<circle cx="668.7" cy="346.7" r="2.3" fill="#0969da"/>
<circle cx="694.9" cy="311.1" r="2.3" fill="#0969da"/>
<circle cx="721.1" cy="294.6" r="2.3" fill="#0969da"/>
<circle cx="747.3" cy="301.0" r="2.3" fill="#0969da"/>
<circle cx="773.5" cy="285.0" r="2.3" fill="#0969da"/>
<circle cx="799.7" cy="309.1" r="2.3" fill="#0969da"/>
<circle cx="825.9" cy="298.9" r="2.3" fill="#0969da"/>
<circle cx="852.2" cy="310.8" r="2.3" fill="#0969da"/>
<circle cx="878.4" cy="248.9" r="2.3" fill="#0969da"/>
<circle cx="904.6" cy="243.2" r="2.3" fill="#0969da"/>
<circle cx="930.8" cy="210.4" r="2.3" fill="#0969da"/>
<circle cx="957.0" cy="196.9" r="2.3" fill="#0969da"/>
<circle cx="983.2" cy="191.3" r="2.3" fill="#0969da"/>
<circle cx="1009.4" cy="218.6" r="2.3" fill="#0969da"/>
<circle cx="1035.6" cy="213.4" r="2.3" fill="#0969da"/>
<circle cx="1061.8" cy="268.9" r="2.3" fill="#0969da"/>
<circle cx="1088.0" cy="270.8" r="2.3" fill="#0969da"/>
<line x1="275.6" y1="54" x2="275.6" y2="572" stroke="#1a7f37" stroke-width="1" stroke-dasharray="2 4" opacity=".45"/>
<text x="275.6" y="421.9" font-size="10" fill="#1a7f37" text-anchor="middle" font-weight="700">▲14.8×</text>
<line x1="485.3" y1="54" x2="485.3" y2="572" stroke="#1a7f37" stroke-width="1" stroke-dasharray="2 4" opacity=".45"/>
<text x="485.3" y="431.6" font-size="10" fill="#1a7f37" text-anchor="middle" font-weight="700">▲16.1×</text>
<line x1="537.7" y1="54" x2="537.7" y2="572" stroke="#1a7f37" stroke-width="1" stroke-dasharray="2 4" opacity=".45"/>
<text x="537.7" y="445.9" font-size="10" fill="#1a7f37" text-anchor="middle" font-weight="700">▲15.9×</text>
<line x1="668.7" y1="54" x2="668.7" y2="572" stroke="#cf222e" stroke-width="1" stroke-dasharray="2 4" opacity=".45"/>
<text x="668.7" y="328.7" font-size="10" fill="#cf222e" text-anchor="middle" font-weight="700">▼12.4×</text>
<line x1="773.5" y1="54" x2="773.5" y2="572" stroke="#cf222e" stroke-width="1" stroke-dasharray="2 4" opacity=".45"/>
<text x="773.5" y="267.0" font-size="10" fill="#cf222e" text-anchor="middle" font-weight="700">▼433.5×</text>
<line x1="799.7" y1="54" x2="799.7" y2="572" stroke="#cf222e" stroke-width="1" stroke-dasharray="2 4" opacity=".45"/>
<text x="799.7" y="291.1" font-size="10" fill="#cf222e" text-anchor="middle" font-weight="700">▼36.9×</text>
<line x1="1061.8" y1="54" x2="1061.8" y2="572" stroke="#cf222e" stroke-width="1" stroke-dasharray="2 4" opacity=".45"/>
<text x="1061.8" y="250.9" font-size="10" fill="#cf222e" text-anchor="middle" font-weight="700">▼200.3×</text>
<text x="66.0" y="590" font-size="10" fill="#6e7781" text-anchor="middle" transform="rotate(-42 66.0,590)">06-25</text>
<text x="144.6" y="590" font-size="10" fill="#6e7781" text-anchor="middle" transform="rotate(-42 144.6,590)">06-30</text>
<text x="223.2" y="590" font-size="10" fill="#6e7781" text-anchor="middle" transform="rotate(-42 223.2,590)">07-08</text>
<text x="301.8" y="590" font-size="10" fill="#6e7781" text-anchor="middle" transform="rotate(-42 301.8,590)">07-14</text>
<text x="380.5" y="590" font-size="10" fill="#6e7781" text-anchor="middle" transform="rotate(-42 380.5,590)">07-17</text>
<text x="459.1" y="590" font-size="10" fill="#6e7781" text-anchor="middle" transform="rotate(-42 459.1,590)">07-24</text>
<text x="537.7" y="590" font-size="10" fill="#6e7781" text-anchor="middle" transform="rotate(-42 537.7,590)">07-29</text>
<text x="616.3" y="590" font-size="10" fill="#6e7781" text-anchor="middle" transform="rotate(-42 616.3,590)">08-04</text>
<text x="694.9" y="590" font-size="10" fill="#6e7781" text-anchor="middle" transform="rotate(-42 694.9,590)">08-07</text>
<text x="773.5" y="590" font-size="10" fill="#6e7781" text-anchor="middle" transform="rotate(-42 773.5,590)">08-12</text>
<text x="852.2" y="590" font-size="10" fill="#6e7781" text-anchor="middle" transform="rotate(-42 852.2,590)">08-18</text>
<text x="930.8" y="590" font-size="10" fill="#6e7781" text-anchor="middle" transform="rotate(-42 930.8,590)">08-21</text>
<text x="1009.4" y="590" font-size="10" fill="#6e7781" text-anchor="middle" transform="rotate(-42 1009.4,590)">08-26</text>
<text x="1088.0" y="590" font-size="10" fill="#6e7781" text-anchor="middle" transform="rotate(-42 1088.0,590)">08-31</text>
<line x1="1102" y1="70" x2="1130" y2="70" stroke="#0969da" stroke-width="2.6" opacity="1"/>
<text x="1136" y="74" font-size="11" fill="#24292f">收盘价</text>
<line x1="1102" y1="91" x2="1130" y2="91" stroke="#57606a" stroke-width="7" opacity=".25"/>
<text x="1136" y="95" font-size="11" fill="#24292f">日 K（半透明）</text>
<line x1="1102" y1="112" x2="1130" y2="112" stroke="#1a7f37" stroke-width="5" opacity="1"/>
<text x="1136" y="116" font-size="11" fill="#24292f">put 墙 #1</text>
<line x1="1102" y1="133" x2="1130" y2="133" stroke="#3fb950" stroke-width="3.6" opacity="1"/>
<text x="1136" y="137" font-size="11" fill="#24292f">put 墙 #2</text>
<line x1="1102" y1="154" x2="1130" y2="154" stroke="#7ee787" stroke-width="2.2" opacity="1"/>
<text x="1136" y="158" font-size="11" fill="#24292f">put 墙 #3</text>
<line x1="1102" y1="175" x2="1130" y2="175" stroke="#cf222e" stroke-width="5" opacity="1"/>
<text x="1136" y="179" font-size="11" fill="#24292f">call 墙 #1</text>
<line x1="1102" y1="196" x2="1130" y2="196" stroke="#f85149" stroke-width="3.6" opacity="1"/>
<text x="1136" y="200" font-size="11" fill="#24292f">call 墙 #2</text>
<line x1="1102" y1="217" x2="1130" y2="217" stroke="#ffa198" stroke-width="2.2" opacity="1"/>
<text x="1136" y="221" font-size="11" fill="#24292f">call 墙 #3</text>
<text x="1102" y="244" font-size="10.5" fill="#6e7781">▲▼ 极强信号 ≥10×</text>
<text x="66" y="26" font-size="14.5" font-weight="700" fill="#24292f">GLD 三道墙（跨到期累计 OI）vs 日K　2026-06-25 ~ 08-31</text>
<text x="66" y="43" font-size="11" fill="#6e7781">墙 = 跨到期累计 OI 前三大（现价±15% 内），粗细按排名</text>
</svg>